<svg xmlns="http://www.w3.org/2000/svg" xmlns:xlink="http://www.w3.org/1999/xlink" width="100" height="42" viewBox="0 0 100 42">
    <defs>
        <path id="prefix__a" d="M0 0.069L14.432 0.069 14.432 14.706 0 14.706z"/>
        <path id="prefix__c" d="M0.296 0.207L14.727 0.207 14.727 14.844 0.296 14.844z"/>
    </defs>
    <g fill="none" fill-rule="evenodd">
        <path fill="#82A542" d="M53.012 37.853c1.11 0 2.115-.274 3.015-.822.9-.548 1.61-1.302 2.132-2.264.521-.962.783-2.036.783-3.221s-.262-2.253-.783-3.204c-.522-.95-1.233-1.698-2.132-2.247-.9-.548-1.905-.822-3.015-.822s-2.116.274-3.015.822c-.9.549-1.605 1.297-2.116 2.247-.51.951-.766 2.019-.766 3.204s.255 2.26.766 3.22c.511.963 1.216 1.717 2.116 2.265.9.548 1.904.822 3.015.822m-7.463-23.315c.488 0 .894.158 1.216.47.322.314.483.727.483 1.241v9.058c.778-.962 1.721-1.712 2.832-2.248 1.11-.537 2.31-.805 3.598-.805 1.599 0 3.048.403 4.348 1.207 1.3.806 2.32 1.918 3.064 3.339.744 1.42 1.116 3.002 1.116 4.746 0 1.744-.399 3.327-1.199 4.747s-1.904 2.538-3.314 3.354c-1.411.817-2.971 1.224-4.681 1.224s-3.26-.407-4.647-1.224c-1.39-.816-2.489-1.934-3.299-3.354-.81-1.42-1.216-3.003-1.216-4.747V16.249c0-.514.155-.927.467-1.24.31-.313.721-.47 1.232-.47" transform="translate(.535 .538)"/>
        <g transform="translate(.535 .538) translate(0 21.538)">
            <path fill="#040204" d="M36.348 1.598c.934 1.003 1.4 2.4 1.4 4.194v7.543c0 .387-.121.708-.365.963-.245.255-.568.382-.97.382-.384 0-.703-.127-.956-.382s-.38-.576-.38-.963V5.792c0-1.072-.266-1.886-.799-2.44-.532-.553-1.244-.83-2.134-.83-.908 0-1.655.317-2.24.95-.585.632-.877 1.44-.877 2.426v7.437c0 .387-.122.708-.366.963-.245.255-.568.382-.97.382-.384 0-.702-.127-.956-.382-.253-.255-.38-.576-.38-.963V5.792c0-1.072-.266-1.886-.799-2.44-.532-.553-1.243-.83-2.134-.83-.926 0-1.68.317-2.266.95-.585.632-.877 1.44-.877 2.426v7.437c0 .387-.123.708-.367.963s-.567.382-.969.382c-.384 0-.703-.127-.956-.382-.254-.255-.38-.576-.38-.963V1.598c0-.404.126-.729.38-.975.253-.246.572-.37.956-.37s.698.12.943.356c.244.238.375.55.393.937.454-.457.995-.813 1.624-1.068.628-.255 1.31-.383 2.043-.383.89 0 1.689.181 2.397.541.706.36 1.287.875 1.741 1.543.524-.65 1.179-1.16 1.964-1.53.786-.37 1.66-.554 2.62-.554 1.519 0 2.746.501 3.68 1.503"/>
            <mask id="prefix__b" fill="#fff">
                <use xlink:href="#prefix__a"/>
            </mask>
            <path fill="#040204" d="M4.832 3.075c-.707.422-1.261 1.011-1.663 1.767-.401.757-.602 1.61-.602 2.559 0 .949.2 1.797.602 2.545.402.747.956 1.33 1.663 1.754.708.421 1.506.632 2.397.632.89 0 1.69-.21 2.396-.632.708-.423 1.258-1.007 1.65-1.754.394-.748.59-1.596.59-2.545 0-.95-.196-1.802-.59-2.559-.392-.756-.942-1.345-1.65-1.767-.707-.422-1.506-.633-2.396-.633-.89 0-1.69.211-2.397.633m6.104-2.07c1.09.624 1.946 1.49 2.566 2.597.62 1.108.93 2.374.93 3.799 0 1.407-.306 2.663-.917 3.77-.611 1.109-1.462 1.975-2.554 2.598-1.091.625-2.335.937-3.732.937-1.397 0-2.645-.312-3.745-.937-1.1-.623-1.957-1.49-2.567-2.597C.305 10.064 0 8.808 0 7.4c0-1.425.305-2.69.917-3.799.61-1.107 1.466-1.973 2.567-2.597C4.584.38 5.832.069 7.229.069c1.38 0 2.615.312 3.707.936" mask="url(#prefix__b)"/>
            <path fill="#040204" d="M71.142 3.214c-.707.422-1.261 1.011-1.662 1.767-.402.757-.603 1.609-.603 2.558 0 .95.2 1.798.603 2.546.4.746.955 1.33 1.662 1.753.708.422 1.506.633 2.397.633.89 0 1.69-.211 2.397-.633.707-.422 1.257-1.007 1.65-1.753.393-.748.589-1.596.589-2.546 0-.949-.196-1.801-.589-2.558-.393-.756-.943-1.345-1.65-1.767-.707-.422-1.507-.633-2.397-.633-.89 0-1.69.211-2.397.633m6.103-2.07c1.091.624 1.948 1.49 2.567 2.597.62 1.108.93 2.374.93 3.798 0 1.407-.306 2.664-.917 3.772-.611 1.107-1.462 1.974-2.553 2.597-1.092.625-2.336.937-3.733.937-1.397 0-2.645-.312-3.745-.937-1.1-.623-1.957-1.49-2.567-2.597-.612-1.108-.917-2.365-.917-3.772 0-1.424.305-2.69.917-3.798.61-1.107 1.467-1.973 2.567-2.598 1.1-.623 2.348-.935 3.745-.935 1.38 0 2.615.312 3.706.935"/>
            <g transform="translate(83.957)">
                <mask id="prefix__d" fill="#fff">
                    <use xlink:href="#prefix__c"/>
                </mask>
                <path fill="#040204" d="M5.128 3.214c-.707.422-1.262 1.01-1.663 1.767-.402.756-.602 1.609-.602 2.558 0 .949.2 1.798.602 2.545.401.747.956 1.331 1.663 1.754.707.421 1.506.633 2.397.633.89 0 1.69-.212 2.396-.633.707-.423 1.257-1.007 1.65-1.754.393-.747.59-1.596.59-2.545 0-.95-.197-1.802-.59-2.558-.393-.756-.943-1.345-1.65-1.767-.707-.422-1.506-.634-2.396-.634-.891 0-1.69.212-2.397.634m6.103-2.07c1.091.623 1.947 1.49 2.567 2.597.62 1.108.93 2.374.93 3.798 0 1.407-.306 2.663-.917 3.771s-1.463 1.974-2.554 2.598c-1.091.624-2.336.936-3.732.936-1.398 0-2.646-.312-3.746-.936-1.1-.624-1.956-1.49-2.567-2.598C.601 10.202.296 8.946.296 7.54c0-1.425.305-2.691.916-3.8.611-1.106 1.467-1.973 2.567-2.597C4.88.52 6.127.207 7.525.207c1.38 0 2.615.313 3.706.936" mask="url(#prefix__d)"/>
            </g>
        </g>
        <path fill="#82A542" d="M79.948 15.615c-.638 0-1.259-.264-1.61-.74-.356-.484-8.978-11.84-28.872-11.84-19.895 0-28.517 11.356-28.875 11.84-.53.718-1.678.953-2.565.524-.886-.429-1.178-1.357-.652-2.077C17.772 12.778 27.374 0 49.466 0c22.09 0 31.692 12.778 32.09 13.322.527.722.234 1.653-.655 2.08-.3.145-.629.213-.953.213" transform="translate(.535 .538)"/>
    </g>
</svg>
