<svg xmlns="http://www.w3.org/2000/svg" width="300" height="300" viewBox="0 0 300 300">
    <g fill="none">
        <path fill="#87AD3F" stroke="#87AD3F" stroke-width="4" d="M150 18c31.348 0 57.486 8.81 78.522 23.505 7.397 5.167 13.636 10.715 18.763 16.29 3.145 3.418 5.263 6.156 6.4 7.868 2.465 3.713 1.364 8.664-2.458 11.06-3.63 2.274-8.412 1.423-10.995-1.85l-.744-1.038c-.175-.239-.406-.547-.695-.92-1.026-1.327-2.289-2.828-3.79-4.46-4.358-4.738-9.715-9.503-16.097-13.96C200.575 41.69 177.76 34 150 34c-27.76 0-50.575 7.69-68.906 20.494-6.382 4.458-11.739 9.223-16.097 13.96-1.501 1.633-2.764 3.134-3.79 4.46l-.695.92-.355.501c-2.465 3.713-7.562 4.782-11.384 2.387s-4.923-7.346-2.458-11.059c1.137-1.712 3.255-4.45 6.4-7.869 5.127-5.574 11.366-11.122 18.763-16.29C92.514 26.81 118.652 18 150 18z"/>
        <path fill="#363636" d="M152.377 283c12.578 0 24.052-2.945 34.424-8.834 10.372-5.89 18.498-13.958 24.379-24.204 5.88-10.247 8.82-21.663 8.82-34.249 0-12.586-2.736-24.002-8.208-34.248-5.472-10.246-12.985-18.274-22.54-24.083-9.556-5.809-20.214-8.713-31.974-8.713-9.474 0-18.294 1.936-26.461 5.809-8.167 3.872-15.11 9.278-20.826 16.216v-65.35c0-3.711-1.184-6.696-3.553-8.955-2.368-2.26-5.35-3.389-8.943-3.389-3.756 0-6.778 1.13-9.065 3.389S85 101.633 85 105.344v110.37c0 12.585 2.98 24.001 8.943 34.248 5.962 10.246 14.047 18.314 24.256 24.204 10.208 5.89 21.601 8.834 34.178 8.834zm0-21.783c-8.166 0-15.558-1.977-22.173-5.93-6.615-3.954-11.801-9.4-15.558-16.338-3.757-6.938-5.635-14.684-5.635-23.236 0-8.552 1.878-16.257 5.635-23.114 3.757-6.858 8.943-12.264 15.558-16.217 6.615-3.953 14.007-5.93 22.173-5.93 8.167 0 15.559 1.977 22.174 5.93 6.615 3.953 11.842 9.359 15.68 16.217 3.839 6.857 5.758 14.562 5.758 23.114 0 8.552-1.92 16.298-5.758 23.236-3.838 6.938-9.065 12.384-15.68 16.338-6.615 3.953-14.007 5.93-22.174 5.93z"/>
    </g>
</svg>
