<?xml version="1.0" encoding="UTF-8"?>
<svg xmlns="http://www.w3.org/2000/svg" xmlns:xlink="http://www.w3.org/1999/xlink" width="16pt" height="16pt" viewBox="0 0 16 16" version="1.1">
<g id="surface1">
<path style="fill-rule:nonzero;fill:rgb(0%,0%,0%);fill-opacity:1;stroke-width:4;stroke-linecap:butt;stroke-linejoin:miter;stroke:rgb(0%,0%,0%);stroke-opacity:1;stroke-miterlimit:4;" d="M 150 18.017578 C 181.347656 18.017578 207.495117 26.806641 228.515625 41.52832 C 235.913086 46.655273 242.138672 52.22168 247.265625 57.788086 C 250.415039 61.230469 252.539062 63.94043 253.710938 65.698242 C 256.12793 69.360352 255.029297 74.34082 251.220703 76.757812 C 247.631836 79.02832 242.797852 78.149414 240.234375 74.853516 L 239.501953 73.828125 C 239.282227 73.608398 239.0625 73.31543 238.769531 72.949219 C 237.744141 71.557617 236.499023 70.092773 235.03418 68.481445 C 230.639648 63.720703 225.292969 58.959961 218.920898 54.492188 C 200.610352 41.674805 177.758789 33.984375 150 33.984375 C 122.241211 33.984375 99.389648 41.674805 81.079102 54.492188 C 74.707031 58.959961 69.360352 63.720703 64.96582 68.481445 C 63.500977 70.092773 62.255859 71.557617 61.230469 72.949219 L 60.498047 73.828125 L 60.131836 74.34082 C 57.714844 78.076172 52.587891 79.101562 48.779297 76.757812 C 44.970703 74.34082 43.87207 69.360352 46.289062 65.698242 C 47.460938 63.94043 49.584961 61.230469 52.734375 57.788086 C 57.861328 52.22168 64.086914 46.655273 71.484375 41.52832 C 92.504883 26.806641 118.652344 18.017578 150 18.017578 Z M 150 18.017578 " transform="matrix(0.0533333,0,0,0.0533333,0,0)"/>
<path style=" stroke:none;fill-rule:nonzero;fill:rgb(0%,0%,0%);fill-opacity:1;" d="M 8.125 15.09375 C 8.796875 15.09375 9.410156 14.9375 9.960938 14.621094 C 10.515625 14.308594 10.949219 13.878906 11.261719 13.332031 C 11.578125 12.785156 11.734375 12.175781 11.734375 11.503906 C 11.734375 10.832031 11.585938 10.222656 11.296875 9.679688 C 11.003906 9.132812 10.601562 8.703125 10.09375 8.394531 C 9.582031 8.082031 9.015625 7.929688 8.386719 7.929688 C 7.882812 7.929688 7.414062 8.03125 6.976562 8.238281 C 6.542969 8.445312 6.171875 8.734375 5.867188 9.105469 L 5.867188 5.617188 C 5.867188 5.421875 5.804688 5.261719 5.675781 5.140625 C 5.550781 5.019531 5.390625 4.960938 5.199219 4.960938 C 5 4.960938 4.839844 5.019531 4.714844 5.140625 C 4.59375 5.261719 4.535156 5.421875 4.535156 5.617188 L 4.535156 11.503906 C 4.535156 12.175781 4.691406 12.785156 5.011719 13.332031 C 5.328125 13.878906 5.757812 14.308594 6.304688 14.621094 C 6.847656 14.9375 7.457031 15.09375 8.125 15.09375 Z M 8.125 13.929688 C 7.691406 13.929688 7.296875 13.824219 6.945312 13.617188 C 6.589844 13.40625 6.316406 13.113281 6.113281 12.742188 C 5.914062 12.375 5.8125 11.960938 5.8125 11.503906 C 5.8125 11.046875 5.914062 10.636719 6.113281 10.273438 C 6.316406 9.90625 6.589844 9.617188 6.945312 9.40625 C 7.296875 9.195312 7.691406 9.089844 8.125 9.089844 C 8.5625 9.089844 8.957031 9.195312 9.308594 9.40625 C 9.664062 9.617188 9.941406 9.90625 10.144531 10.273438 C 10.351562 10.636719 10.453125 11.046875 10.453125 11.503906 C 10.453125 11.960938 10.351562 12.375 10.144531 12.742188 C 9.941406 13.113281 9.664062 13.40625 9.308594 13.617188 C 8.957031 13.824219 8.5625 13.929688 8.125 13.929688 Z M 8.125 13.929688 "/>
</g>
</svg>
