<svg xmlns="http://www.w3.org/2000/svg" width="195" height="202" viewBox="0 0 195 202">
    <g fill="none" fill-rule="evenodd">
        <path fill="#B1D691" d="M183.097 114.658c8.133-30.4 0-107.948-90.064-107.948S-6.621 81.283 2.969 114.658c9.59 33.376 170.752 35.046 180.128 0z" transform="translate(1.598 1.603)"/>
        <g stroke="#000" stroke-width=".81">
            <g stroke-linecap="round" stroke-linejoin="round">
                <path d="M27.058 45.672L17.418 27.68" transform="translate(1.598 1.603) translate(5.837) translate(22.794 39.31) matrix(-1 0 0 1 44.11 0)"/>
                <path d="M17.351 37.274L21.755 15.806" transform="translate(1.598 1.603) translate(5.837) translate(22.794 39.31) matrix(-1 0 0 1 38.872 0)"/>
                <path d="M104.614 54.899L94.973 36.907M100.51 47.329L110.284 29.242M69.772 52.362L43.92 27.323" transform="translate(1.598 1.603) translate(5.837) translate(22.794 39.31)"/>
                <path d="M49.897 19.021L69.153 4.666" transform="translate(1.598 1.603) translate(5.837) translate(22.794 39.31) matrix(-1 0 0 1 119.327 0)"/>
                <path d="M69.892 34.114L100.21 14.877" transform="translate(1.598 1.603) translate(5.837) translate(22.794 39.31)"/>
                <path d="M0.594 73.155L69.532 38.208" transform="translate(1.598 1.603) translate(5.837) translate(22.794 39.31) matrix(-1 0 0 1 70.05 0)"/>
                <path d="M69.81 73.155L138.748 38.208M69.563 158.899L69.98 0" transform="translate(1.598 1.603) translate(5.837) translate(22.794 39.31)"/>
            </g>
            <path d="M183.097 107.948C191.23 77.547 183.097 0 93.033 0S-6.621 74.573 2.969 107.948c9.59 33.375 170.752 35.046 180.128 0z" transform="translate(1.598 1.603) translate(5.837)"/>
        </g>
    </g>
</svg>
