<svg xmlns="http://www.w3.org/2000/svg" width="265" height="295" viewBox="0 0 265 295">
    <g fill="none" fill-rule="evenodd">
        <g>
            <path fill="#D8ECB3" d="M63.82 222.667c35.246 0 63.819 6.52 63.819-52.295S82.264 7.932 63.819 7.932C45.375 7.932 0 111.557 0 170.372s28.573 52.295 63.82 52.295z" transform="translate(127.995 1.595)"/>
            <path stroke="#000" stroke-width=".798" d="M69.765 215.321c35.466 0 64.216 6.538 64.216-52.437C133.981 103.908 88.325 0 69.765 0 51.205 0 5.55 103.908 5.55 162.884c0 58.975 28.75 52.437 64.215 52.437z" transform="translate(127.995 1.595)"/>
            <path stroke="#000" stroke-linecap="round" stroke-linejoin="round" stroke-width=".798" d="M69.515 291.454L69.797 58.612M69.837 151.436L94.191 115.135" transform="translate(127.995 1.595)"/>
            <path stroke="#000" stroke-linecap="round" stroke-linejoin="round" stroke-width=".798" d="M32.798 215.353L64.022 160.618" transform="translate(127.995 1.595) matrix(-1 0 0 1 96.923 0)"/>
            <path stroke="#000" stroke-linecap="round" stroke-linejoin="round" stroke-width=".798" d="M75.263 215.372L106.488 160.637M49.153 188.775L62.63 167.36M91.567 185.999L89.982 160.618M90.774 170.136L104.252 155.065" transform="translate(127.995 1.595)"/>
            <path stroke="#000" stroke-linecap="round" stroke-linejoin="round" stroke-width=".798" d="M45.261 151.436L69.614 115.135" transform="translate(127.995 1.595) matrix(-1 0 0 1 114.731 0)"/>
            <path stroke="#000" stroke-linecap="round" stroke-linejoin="round" stroke-width=".798" d="M69.786 103.876L87.256 77.833" transform="translate(127.995 1.595)"/>
            <path stroke="#000" stroke-linecap="round" stroke-linejoin="round" stroke-width=".798" d="M52.155 103.876L69.625 77.833" transform="translate(127.995 1.595) matrix(-1 0 0 1 121.677 0)"/>
            <path stroke="#000" stroke-linecap="round" stroke-linejoin="round" stroke-width=".798" d="M82.054 84.473L78.09 75.748M54.702 80.904L57.081 70.592M53.117 126.115L61.838 117.39M87.207 125.321L84.036 110.251M41.621 176.481L30.522 174.102" transform="translate(127.995 1.595)"/>
        </g>
        <g>
            <path fill="#B6DF68" d="M66.99 7.178c16.935 0 43.066 19.293 43.066 43.092 0 2.346-.187 4.648-.548 6.892 8.3 9.75 13.308 22.39 13.308 36.2 0 2.513-.166 4.988-.487 7.413 6.371 10.096 10.057 22.057 10.057 34.88 0 36.14-29.278 33.368-65.395 33.368h-1.082c-35.618.051-64.314 2.41-64.314-33.367 0-12.824 3.686-24.786 10.057-34.883-.321-2.424-.487-4.898-.487-7.411 0-13.81 5.009-26.45 13.307-36.2-.36-2.244-.547-4.546-.547-6.892 0-23.8 26.13-43.092 43.066-43.092z" transform="translate(0 61.6)"/>
            <g stroke="#000" stroke-width=".798">
                <g stroke-linecap="round" stroke-linejoin="round">
                    <path d="M37.678 57.315L60.383 21.589M37.482 39.335L17.322 10.136M24.76 19.804L30.24.508M37.189 95.583L.587 42.949M37.678 87.773L66.646 44.255M59.208 55.771L74.867 48.133M14.582 62.785L10.667 34.088M52.162 33.87L56.468 10.156M37.287 9.879L37.287 192.46" transform="translate(0 61.6) translate(7.178 1.595) translate(26.913 36.327)"/>
                </g>
                <path d="M64.2 0c16.624 0 42.277 18.888 42.277 42.187 0 2.296-.184 4.55-.538 6.747 8.147 9.544 13.065 21.919 13.065 35.44 0 2.46-.163 4.881-.479 7.255 6.255 9.885 9.874 21.595 9.874 34.15 0 35.38-28.743 32.665-64.2 32.665C28.743 158.444 0 161.158 0 125.778c0-12.554 3.619-24.264 9.873-34.15-.315-2.373-.478-4.795-.478-7.255 0-13.52 4.917-25.895 13.065-35.44-.354-2.196-.538-4.45-.538-6.746C21.922 18.887 47.574 0 64.199 0z" transform="translate(0 61.6) translate(7.178 1.595)"/>
            </g>
        </g>
    </g>
</svg>
