<svg xmlns="http://www.w3.org/2000/svg" width="242" height="254" viewBox="0 0 242 254">
    <g fill="none" fill-rule="evenodd">
        <g>
            <path fill="#B6DF68" d="M82 5c21.235 0 54 24.192 54 54.033 0 2.942-.235 5.83-.687 8.644C145.72 79.901 152 95.75 152 113.067c0 3.151-.208 6.254-.611 9.295C159.378 135.021 164 150.02 164 166.1c0 45.316-36.713 41.84-82 41.84s-82 3.476-82-41.84c0-16.079 4.622-31.078 12.61-43.739-.402-3.04-.61-6.142-.61-9.293C12 95.75 18.28 79.9 28.686 67.675c-.451-2.812-.686-5.7-.686-8.642C28 29.192 60.765 5 82 5z" transform="translate(0 1) translate(70)"/>
            <g stroke="#000">
                <g stroke-linecap="round" stroke-linejoin="round">
                    <path d="M47.245 60.113L75.714 15.316M46.999 37.567L21.72.955M46.631 108.097L.736 42.099M47.245 98.304L83.568 43.737M46.754.632L46.754 193.194" transform="translate(0 1) translate(70) translate(10) translate(34 57)"/>
                </g>
                <path d="M80.5 0c20.846 0 53.012 23.715 53.012 52.969 0 2.884-.23 5.714-.674 8.473 10.216 11.983 16.382 27.52 16.382 44.495 0 3.089-.205 6.13-.6 9.11 7.842 12.411 12.38 27.115 12.38 42.878 0 44.422-36.041 41.015-80.5 41.015S0 202.347 0 157.925c0-15.763 4.538-30.467 12.38-42.879-.395-2.979-.6-6.02-.6-9.109 0-16.976 6.166-32.512 16.382-44.497-.444-2.757-.674-5.587-.674-8.471C27.488 23.715 59.654 0 80.5 0z" transform="translate(0 1) translate(70) translate(10)"/>
            </g>
        </g>
        <g transform="translate(0 1) translate(0 95)">
            <ellipse cx="55.5" cy="60.5" fill="#ECCCB3" rx="55.5" ry="56.5" transform="matrix(-1 0 0 1 111 0)"/>
            <g stroke="#000" transform="translate(5)">
                <g stroke-linecap="round" stroke-linejoin="round">
                    <path d="M24.602 120.74L24.027 1.08" transform="translate(14.922 35.628) matrix(-1 0 0 1 49.075 0)"/>
                    <path d="M7.601 18.187L24.515 0" transform="translate(14.922 35.628) matrix(-1 0 0 1 31.976 0)"/>
                    <path d="M0.135 48.416L24.448 24.004" transform="translate(14.922 35.628) matrix(-1 0 0 1 24.515 0)"/>
                    <path d="M69.804 37.565L24.666 9.124" transform="translate(14.922 35.628) matrix(-1 0 0 1 95.052 0)"/>
                    <path d="M74.474 60.302L25.788 45.581" transform="translate(14.922 35.628) matrix(-1 0 0 1 100.193 0)"/>
                </g>
                <ellipse cx="55.959" cy="56.141" rx="55.959" ry="56.141" transform="matrix(-1 0 0 1 111.917 0)"/>
            </g>
        </g>
    </g>
</svg>
