<svg xmlns="http://www.w3.org/2000/svg" width="31" height="40" viewBox="0 0 31 40">
    <g fill="none" fill-rule="evenodd" transform="translate(.85 .93)">
        <ellipse cx="13.731" cy="15.167" fill="#ECCCB3" rx="13.478" ry="13.686" transform="matrix(-1 0 0 1 27.462 0)"/>
        <g stroke="#000" stroke-linecap="round" stroke-linejoin="round" stroke-width=".5">
            <path d="M5.978 29.319L5.839 0.262" transform="translate(5.083 9.163) matrix(-1 0 0 1 11.925 0)"/>
            <path d="M1.847 4.416L5.957 0" transform="translate(5.083 9.163) matrix(-1 0 0 1 7.77 0)"/>
            <path d="M0.033 11.757L5.941 5.829" transform="translate(5.083 9.163) matrix(-1 0 0 1 5.957 0)"/>
            <path d="M16.962 9.122L5.994 2.215" transform="translate(5.083 9.163) matrix(-1 0 0 1 23.098 0)"/>
            <path d="M18.097 14.643L6.266 11.068" transform="translate(5.083 9.163) matrix(-1 0 0 1 24.347 0)"/>
        </g>
        <ellipse cx="15.055" cy="14.144" stroke="#000" stroke-width=".5" rx="13.598" ry="13.633" transform="matrix(-1 0 0 1 30.11 0)"/>
    </g>
</svg>
