<svg xmlns="http://www.w3.org/2000/svg" width="44" height="63" viewBox="0 0 44 63">
    <g fill="none" fill-rule="evenodd">
        <path fill="#B6DF68" d="M20.22 1.704c5.174 0 13.156 5.889 13.156 13.153 0 .716-.057 1.419-.167 2.104 2.535 2.975 4.065 6.833 4.065 11.05 0 .766-.05 1.521-.149 2.261 1.946 3.083 3.072 6.734 3.072 10.648 0 11.03-8.944 10.184-19.976 10.184h-.33C9.01 51.12.243 51.84.243 40.92c0-3.914 1.126-7.565 3.072-10.647-.098-.74-.149-1.496-.149-2.263 0-4.216 1.53-8.074 4.066-11.05-.11-.684-.168-1.387-.168-2.103 0-7.264 7.982-13.153 13.156-13.153z" transform="translate(.72 .98)"/>
        <g stroke="#000" stroke-linecap="round" stroke-linejoin="round" stroke-width=".5">
            <path d="M11.51 14.633L18.446 3.728M11.45 9.145L5.292.232M11.36 26.314L.179 10.248M11.51 23.93L20.359 10.647M11.39.154L11.39 47.028" transform="translate(.72 .98) translate(10.963 14.362)"/>
        </g>
        <path stroke="#000" stroke-width=".5" d="M22.291.487c5.079 0 12.915 5.773 12.915 12.894 0 .702-.056 1.391-.164 2.063 2.489 2.916 3.99 6.698 3.99 10.83 0 .753-.049 1.493-.145 2.219 1.91 3.021 3.016 6.6 3.016 10.437 0 9.3-6.494 9.988-15.202 9.998h-.61c-1.23-.002-2.5-.014-3.8-.014-1.3 0-2.57.012-3.799.014h-.61C9.173 48.918 2.68 48.23 2.68 38.93c0-3.837 1.105-7.416 3.015-10.437-.095-.726-.145-1.466-.145-2.218 0-4.133 1.502-7.915 3.99-10.832-.107-.67-.164-1.36-.164-2.062C9.376 6.26 17.213.487 22.291.487z" transform="translate(.72 .98)"/>
    </g>
</svg>
