<svg xmlns="http://www.w3.org/2000/svg" width="28" height="28" viewBox="0 0 28 28">
    <g fill="none" fill-rule="evenodd" opacity=".8">
        <path d="M0 0H28V28H0z"/>
        <circle cx="14" cy="14" r="13" stroke="#000" stroke-width="2"/>
        <path fill="#000" d="M7.957 11.717h2.481v8.646h-2.48v-8.646zm1.177-1.081h-.017c-.898 0-1.48-.66-1.48-1.498 0-.854.599-1.502 1.515-1.502.915 0 1.478.647 1.496 1.5 0 .837-.581 1.5-1.514 1.5zm11.23 9.728H17.55v-4.475c0-1.171-.44-1.97-1.408-1.97-.74 0-1.151.539-1.343 1.06-.072.186-.06.445-.06.706v4.679h-2.787s.036-7.926 0-8.647h2.786v1.357c.165-.593 1.055-1.44 2.476-1.44 1.764 0 3.149 1.245 3.149 3.922v4.808z"/>
    </g>
</svg>
