<svg xmlns="http://www.w3.org/2000/svg" width="37" height="38" viewBox="0 0 37 38">
    <g fill="none" fill-rule="evenodd">
        <path fill="#B6DF68" d="M11.83 1.003c3.026 0 7.696 3.467 7.696 7.744 0 .421-.033.835-.098 1.238 1.484 1.752 2.379 4.023 2.379 6.505 0 .451-.03.896-.087 1.332 1.138 1.814 1.797 3.964 1.797 6.268 0 5.539-3.807 5.991-8.931 6.004h-.535c-.72-.001-1.462-.008-2.221-.008h-.284c-.66.001-1.308.007-1.937.008h-.535C3.95 30.081.143 29.63.143 24.09c0-2.305.659-4.455 1.797-6.27-.058-.435-.087-.879-.087-1.33 0-2.482.895-4.753 2.378-6.505-.064-.403-.098-.817-.098-1.238 0-4.277 4.67-7.744 7.697-7.744z"/>
        <g stroke="#000" stroke-linecap="round" stroke-linejoin="round" stroke-width=".5">
            <path d="M6.734 8.615L10.791 2.195M6.699 5.384L3.096.137M6.646 15.491L.105 6.033M6.734 14.088L11.911 6.268M6.664.091L6.664 27.686" transform="translate(6.414 8.455)"/>
        </g>
        <path stroke="#000" stroke-width=".5" d="M13.041.287c2.972 0 7.556 3.398 7.556 7.59 0 .414-.033.82-.096 1.215 1.456 1.717 2.335 3.944 2.335 6.376 0 .442-.03.878-.085 1.305 1.117 1.778 1.764 3.886 1.764 6.145 0 6.366-5.137 5.878-11.474 5.878h-.283c-6.205.013-11.19.393-11.19-5.878 0-2.259.647-4.366 1.764-6.145-.056-.426-.085-.862-.085-1.305 0-2.432.878-4.658 2.334-6.375-.062-.396-.095-.802-.095-1.216 0-4.192 4.584-7.59 7.555-7.59z"/>
        <g transform="matrix(-1 0 0 1 35.6 17.6)">
            <ellipse cx="8.516" cy="6.931" fill="#ECCCB3" rx="8.394" ry="6.085"/>
            <g stroke="#000" stroke-width=".5" transform="translate(.847 .244)">
                <g stroke-linecap="round" stroke-linejoin="round">
                    <path d="M7.941 16.73L7.911 2.169M7.871 4.078L10.386 2.048M7.991 7.332L11.705 4.726M9.819 5.993L11.468 3.378M7.859 6.121L.021 2.187M4.106 4.217L3.744 0M7.829 8.658L.394 7.015M3.71 7.68L2.541 4.704" transform="translate(3.02 1.807)"/>
                </g>
                <ellipse cx="8.454" cy="6.085" rx="8.454" ry="6.085"/>
            </g>
        </g>
    </g>
</svg>
