<svg xmlns="http://www.w3.org/2000/svg" width="89" height="93" viewBox="0 0 89 93">
    <g fill="none" fill-rule="evenodd">
        <path fill="#B6DF68" d="M29.575 2.508c7.566 0 19.241 8.667 19.241 19.358 0 1.054-.084 2.089-.245 3.097 3.708 4.38 5.946 10.057 5.946 16.262 0 1.128-.074 2.24-.217 3.33 2.846 4.535 4.493 9.909 4.493 15.67 0 16.235-13.081 14.99-29.218 14.99h-.483C13.178 75.237.356 76.297.356 60.225c0-5.76 1.647-11.134 4.493-15.67-.143-1.09-.217-2.201-.217-3.33 0-6.205 2.238-11.884 5.947-16.264-.162-1.007-.246-2.041-.246-3.095 0-10.691 11.675-19.358 19.242-19.358z"/>
        <g stroke="#000" stroke-linecap="round" stroke-linejoin="round" stroke-width=".81">
            <path d="M16.834 21.536L26.979 5.487M16.747 13.459L7.739.342M16.616 38.728L.262 15.083M16.834 35.219L29.777 15.669M16.659.227L16.659 69.215" transform="translate(16.034 21.138)"/>
        </g>
        <path stroke="#000" stroke-width=".81" d="M32.603.717c7.428 0 18.89 8.496 18.89 18.976 0 1.034-.082 2.048-.24 3.036 3.64 4.293 5.837 9.86 5.837 15.941 0 1.107-.073 2.197-.214 3.264 2.794 4.446 4.411 9.714 4.411 15.362 0 15.915-12.842 14.694-28.684 14.694-15.841 0-28.683 1.221-28.683-14.694 0-5.647 1.616-10.915 4.41-15.361-.14-1.068-.213-2.158-.213-3.265 0-6.082 2.197-11.648 5.838-15.942-.159-.988-.241-2.002-.241-3.035 0-10.48 11.461-18.976 18.89-18.976z"/>
        <g transform="matrix(-1 0 0 1 89 44)">
            <ellipse cx="21.29" cy="17.329" fill="#ECCCB3" rx="20.984" ry="15.212"/>
            <g stroke="#000" stroke-width=".81" transform="translate(2.118 .61)">
                <g stroke-linecap="round" stroke-linejoin="round">
                    <path d="M19.852 41.826L19.776 5.422M19.677 10.195L25.966 5.121M19.979 18.33L29.261 11.815M24.546 14.983L28.67 8.446M19.648 15.303L.052 5.467M10.266 10.543L9.36 0M19.573 21.645L.985 17.537M9.275 19.2L6.353 11.759" transform="translate(7.548 4.518)"/>
                </g>
                <ellipse cx="21.135" cy="15.212" rx="21.135" ry="15.212"/>
            </g>
        </g>
    </g>
</svg>
