<svg xmlns="http://www.w3.org/2000/svg" width="13" height="26" viewBox="0 0 13 26">
    <g fill="none" fill-rule="evenodd">
        <path fill="#9CBE5A" d="M6.052 20.605c3.26 0 5.904.6 5.904-4.805 0-5.404-4.198-14.925-5.904-14.925C4.345.875.148 10.396.148 15.8s2.643 4.805 5.904 4.805z" transform="translate(.16 .37)"/>
        <path stroke="#000" stroke-width=".5" d="M6.602 19.93c3.28 0 5.94.6 5.94-4.818C12.542 9.694 8.32.147 6.602.147 4.885.147.66 9.694.66 15.112c0 5.419 2.66 4.818 5.94 4.818z" transform="translate(.16 .37)"/>
        <g stroke="#000" stroke-linecap="round" stroke-linejoin="round" stroke-width=".5">
            <path d="M3.439 19.207L3.441.008M3.444 8.537L5.697 5.202" transform="translate(.16 .37) translate(3.164 5.523)"/>
            <path d="M0.018 14.41L2.906 9.381" transform="translate(.16 .37) translate(3.164 5.523) matrix(-1 0 0 1 2.934 0)"/>
            <path d="M3.946 14.411L6.835 9.382M1.531 11.968L2.778 10M5.455 11.713L5.308 9.381" transform="translate(.16 .37) translate(3.164 5.523)"/>
            <path d="M1.171 8.537L3.424 5.202" transform="translate(.16 .37) translate(3.164 5.523) matrix(-1 0 0 1 4.581 0)"/>
            <path d="M3.44 4.167L5.056 1.775" transform="translate(.16 .37) translate(3.164 5.523)"/>
            <path d="M1.809 4.167L3.425 1.775" transform="translate(.16 .37) translate(3.164 5.523) matrix(-1 0 0 1 5.224 0)"/>
        </g>
    </g>
</svg>
