<svg xmlns="http://www.w3.org/2000/svg" width="140" height="86" viewBox="0 0 140 86">
    <g fill="none" fill-rule="evenodd">
        <path stroke="#111" stroke-linecap="square" stroke-width=".81" d="M0.51 84.359L133.14 84.359" transform="matrix(-1 0 0 1 139.25 .95)"/>
        <path fill="#ECCCB3" d="M130.652 65.25c.609 0 1.102.493 1.102 1.102v.624c0 .608-.493 1.102-1.102 1.102l-1.559-.001-1.515 15.033c-.056.563-.53.991-1.096.991h-13.21c-.566 0-1.04-.428-1.096-.991l-1.516-15.033h-1.558c-.609 0-1.102-.493-1.102-1.101v-.624c0-.609.493-1.102 1.102-1.102h21.55z" transform="matrix(-1 0 0 1 139.25 .95)"/>
        <path stroke="#111" stroke-linejoin="round" stroke-width=".5" d="M129.398 65.459c.609 0 1.102.493 1.102 1.102v.63c0 .61-.493 1.103-1.102 1.103l-1.57-.001-1.52 15.074c-.058.563-.532.992-1.097.992h-13.272c-.565 0-1.04-.429-1.096-.992l-1.522-15.074h-1.569c-.609 0-1.102-.493-1.102-1.101v-.631c0-.609.493-1.102 1.102-1.102h21.646z" transform="matrix(-1 0 0 1 139.25 .95)"/>
        <g>
            <path fill="#FFF" d="M6.989 38.104c-3.614-.637-5.63-6.335-4.202-14.432C4.215 15.576 9.573.492 13.5 1.185c3.925.692 3.801 16.698 2.374 24.795-1.428 8.096-5.27 12.761-8.884 12.124z" transform="matrix(-1 0 0 1 139.25 .95) translate(115.23 26.862)"/>
            <g stroke-width=".551">
                <path stroke="#111" d="M6.644 37.489C2.974 37.489 0 32.227 0 24.006S2.657 0 6.644 0c3.986 0 6.643 15.785 6.643 24.006S10.313 37.49 6.644 37.49z" transform="matrix(-1 0 0 1 139.25 .95) translate(115.23 26.862) scale(-1 1) rotate(-10 4.74 125.813)"/>
                <path stroke="#111" stroke-linecap="round" stroke-linejoin="round" d="M6.739 37.396L6.644 11.317" transform="matrix(-1 0 0 1 139.25 .95) translate(115.23 26.862) scale(-1 1) rotate(-10 4.74 125.813) matrix(-1 0 0 1 13.287 0)"/>
                <path stroke="#000" stroke-linecap="round" stroke-linejoin="round" d="M4.034 24.521L6.525 31.359 9.016 24.521M4.034 18.155L6.608 24.521 9.016 18.155M4.746 13.439L6.624 18.155 8.305 13.439" transform="matrix(-1 0 0 1 139.25 .95) translate(115.23 26.862) scale(-1 1) rotate(-10 4.74 125.813)"/>
            </g>
        </g>
        <g>
            <path fill="#B6DF68" d="M8.092 37.735c-3.669 0-6.643-5.262-6.643-13.483C1.449 16.03 4.106.246 8.092.246c3.987 0 6.644 15.784 6.644 24.006 0 8.22-2.974 13.483-6.644 13.483z" transform="matrix(-1 0 0 1 139.25 .95) rotate(-10 218.85 -564.767)"/>
            <g stroke-width=".551">
                <path stroke="#111" d="M6.644 37.489C2.974 37.489 0 32.227 0 24.006S2.657 0 6.644 0c3.986 0 6.643 15.785 6.643 24.006S10.313 37.49 6.644 37.49z" transform="matrix(-1 0 0 1 139.25 .95) rotate(-10 218.85 -564.767) translate(.011 .118)"/>
                <path stroke="#111" stroke-linecap="round" stroke-linejoin="round" d="M6.739 37.396L6.644 11.317" transform="matrix(-1 0 0 1 139.25 .95) rotate(-10 218.85 -564.767) translate(.011 .118) matrix(-1 0 0 1 13.287 0)"/>
                <path stroke="#000" stroke-linecap="round" stroke-linejoin="round" d="M4.034 24.521L6.525 31.359 9.016 24.521M4.034 18.155L6.608 24.521 9.016 18.155M4.746 13.439L6.624 18.155 8.305 13.439" transform="matrix(-1 0 0 1 139.25 .95) rotate(-10 218.85 -564.767) translate(.011 .118)"/>
            </g>
        </g>
        <path fill="#B6DF68" d="M30.686 84.359c4.075 0 7.762 0 10.706-.15C54.768 83.533 53.52 62.7 53.52 51.1c0-14.118-15.533-18.429-22.78-20.665C23.488 28.198.08 32.732.08 51.1c0 14.888-2.106 33.11 15.112 33.11 4.077 0 9.35.149 15.493.149z" transform="matrix(-1 0 0 1 139.25 .95)"/>
        <path stroke="#000" stroke-width=".5" d="M32.936 84.359c4.075 0 7.762 0 10.706-.15C57.018 83.533 55.77 62.7 55.77 51.1c0-14.118-15.533-18.429-22.78-20.665C25.738 28.198 2.33 32.732 2.33 51.1c0 14.888-2.106 33.11 15.112 33.11 4.077 0 9.35.149 15.493.149z" transform="matrix(-1 0 0 1 139.25 .95)"/>
        <path fill="#FFF" d="M39.498 5.255c5.952.73 10.254 5.583 9.417 12.396-.815 6.64-6.064 11.493-11.841 11.057l-.622 5.064-.035-.005c-.486 1.418-2.953 2.669-5.72 2.329-2.767-.34-4.86-2.15-4.987-3.644l-.04-.004 1.61-16.585c.019-.285.045-.572.08-.86l.014-.108.005-.04c.896-6.717 6.21-10.326 12.119-9.6z" transform="matrix(-1 0 0 1 139.25 .95)"/>
        <path stroke="#000" stroke-width=".5" d="M38.76 5.255c5.953.73 10.255 5.583 9.419 12.396-.816 6.64-6.065 11.493-11.842 11.057l-.622 5.064-.035-.005c-.485 1.418-2.953 2.669-5.72 2.329-2.767-.34-4.86-2.15-4.987-3.644l-.039-.004 1.61-16.585c.018-.285.044-.572.08-.86l.013-.108.005-.04c.896-6.717 6.21-10.326 12.119-9.6z" transform="matrix(-1 0 0 1 139.25 .95)"/>
        <path stroke="#353333" stroke-linecap="round" stroke-linejoin="round" stroke-width=".5" d="M17.55 49.709v15.634c0 4.268 3.313 7.804 7.572 8.082l12.8.836c1.703.111 3.028 1.526 3.028 3.233v6.865h0" transform="matrix(-1 0 0 1 139.25 .95)"/>
        <path fill="#FFF" d="M50.168 47.25h49.276c1.118 0 2.025.907 2.025 2.025 0 .193-.028.386-.083.571l-9.662 32.85c-.253.862-1.044 1.454-1.942 1.454H40.506c-1.118 0-2.025-.907-2.025-2.025 0-.193.028-.386.083-.571l9.662-32.85c.253-.862 1.044-1.454 1.942-1.454z" transform="matrix(-1 0 0 1 139.25 .95)"/>
        <path stroke="#000" stroke-linejoin="round" stroke-width=".5" d="M48.818 47.459h49.276c1.118 0 2.025.906 2.025 2.025 0 .193-.028.386-.083.571l-9.662 32.85c-.253.862-1.044 1.454-1.942 1.454H39.156c-1.118 0-2.025-.907-2.025-2.025 0-.194.028-.386.083-.572l9.662-32.85c.253-.861 1.044-1.453 1.942-1.453z" transform="matrix(-1 0 0 1 139.25 .95)"/>
        <g fill="#87AD3F" fill-rule="nonzero">
            <path d="M5.081 1.184c1.163 0 2.133.406 2.914 1.083.274.238.506.493.696.75.117.157.195.283.237.362.092.171.051.4-.09.51-.136.104-.313.065-.409-.086l-.027-.048-.026-.042c-.038-.061-.085-.13-.14-.205-.162-.219-.361-.438-.598-.643-.68-.59-1.527-.944-2.557-.944s-1.876.354-2.556.944c-.237.205-.436.424-.598.643-.055.075-.102.144-.14.205l-.026.042-.013.023c-.092.171-.28.22-.423.11-.141-.11-.182-.338-.09-.509.042-.079.12-.205.237-.362.19-.257.421-.512.696-.75.78-.677 1.75-1.083 2.913-1.083z" transform="matrix(-1 0 0 1 139.25 .95) scale(-1 1) rotate(-14 209.819 340.878)"/>
            <path d="M5.17 10.394c.466 0 .892-.108 1.277-.325.385-.217.686-.514.904-.892.218-.377.328-.798.328-1.262 0-.463-.102-.884-.305-1.261-.203-.378-.482-.674-.836-.888-.355-.214-.75-.32-1.187-.32-.351 0-.678.07-.981.213-.303.143-.561.342-.773.598V3.849c0-.136-.044-.246-.132-.33-.088-.083-.198-.124-.332-.124-.14 0-.251.041-.336.124-.085.084-.127.194-.127.33v4.066c0 .464.11.885.331 1.262.222.378.522.675.9.892.38.217.802.325 1.269.325zm0-.802c-.303 0-.578-.073-.823-.219-.246-.145-.438-.346-.577-.602-.14-.255-.21-.54-.21-.856 0-.315.07-.599.21-.851.139-.253.331-.452.577-.598.245-.145.52-.218.823-.218.303 0 .577.073.822.218.246.146.44.345.582.598.142.252.214.536.214.851 0 .315-.072.6-.214.856-.142.256-.336.457-.582.602-.245.146-.52.219-.822.219z" transform="matrix(-1 0 0 1 139.25 .95) scale(-1 1) rotate(-14 209.819 340.878)"/>
        </g>
        <path stroke="#353333" stroke-linecap="round" stroke-linejoin="round" stroke-width=".5" d="M20.25 51.059L18 55.109" transform="matrix(-1 0 0 1 139.25 .95)"/>
        <path stroke="#353333" stroke-linecap="round" stroke-linejoin="round" stroke-width=".81" d="M36.938 22.308c.542.78 1.179 1.301 1.91 1.565.73.264 1.48.403 2.25.416" transform="matrix(-1 0 0 1 139.25 .95)"/>
        <path fill="#000" d="M26.33 20.994c-1.58-.72-3.446-17.054 4.143-18.171 7.588-1.118 21.244 7.344 21.94 8.555.697 1.211-.14 3.931-4.004 3.46-3.864-.47-10.676-4.955-13.474-5.296-2.8-.341-2.092 3.113-5.93 5.15-3.839 2.038-1.096 7.021-2.675 6.302z" transform="matrix(-1 0 0 1 139.25 .95)"/>
        <path stroke="#000" stroke-width=".5" d="M25.593 19.44c-1.58-.72-3.446-17.054 4.143-18.172C37.324.151 50.98 8.613 51.676 9.824c.697 1.21-.14 3.93-4.004 3.46-3.863-.471-10.675-4.955-13.474-5.297-2.799-.34-2.091 3.114-5.93 5.151-3.839 2.038-1.096 7.021-2.675 6.301z" transform="matrix(-1 0 0 1 139.25 .95)"/>
    </g>
</svg>
